<svg width="186" height="69" viewBox="0 0 186 69" fill="none" xmlns="http://www.w3.org/2000/svg">
	<path d="M58.5263 4.93H47.8163C47.3963 4.93 47.0463 5.28 47.0463 5.7V53.23C47.0463 53.65 47.3963 54 47.8163 54H52.3663C52.7863 54 53.0663 53.65 53.0663 53.23V32.72C53.0663 32.3 53.4163 32.02 53.8363 32.02H58.5263C62.2363 32.02 65.3863 28.66 65.3863 24.95V12.21C65.3863 8.22 62.3063 4.93 58.5263 4.93ZM59.2963 23.13C59.2963 24.67 58.0363 25.93 56.4963 25.93H53.8363C53.4163 25.93 53.0663 25.65 53.0663 25.3V11.72C53.0663 11.3 53.4163 11.02 53.8363 11.02H56.4963C58.0363 11.02 59.2963 12.49 59.2963 14.1V23.13ZM73.7857 53.23C73.7157 53.86 74.1357 54 74.5557 54H79.1057C79.5257 54 79.8057 53.65 79.8757 53.23L80.6457 47.98C80.7157 47.7 80.8557 47.49 81.1357 47.49H87.2957C87.6457 47.49 87.7857 47.7 87.8557 47.98C88.3457 51.55 88.5557 52.81 88.6257 53.23C88.6957 53.65 88.9057 54 89.3257 54H93.9457C94.3657 54 94.7157 53.86 94.6457 53.23C94.5057 52.11 88.4857 5.84 88.4157 5.63C88.3457 5.21 88.1357 4.86 87.7157 4.86H80.7857C80.3657 4.86 80.1557 5.21 80.0157 5.63L73.7857 53.23ZM81.5557 41.4L84.2157 11.72L86.8757 41.4C86.9457 41.68 86.6657 41.96 86.3857 41.96H82.1157C81.8357 41.96 81.5557 41.75 81.5557 41.4ZM119.51 36.64L110.97 5.28C110.9 5 110.55 4.93 110.27 4.93H105.58C105.16 4.93 104.81 5.21 104.81 5.63V53.23C104.81 53.65 105.16 54 105.58 54H110.13C110.55 54 110.83 53.65 110.83 53.23V23.13C113.56 33.35 118.6 49.8 119.51 53.23C119.65 53.58 120 53.93 120.42 53.93H124.76C125.18 53.93 125.53 53.58 125.53 53.23V5.7C125.53 5.28 125.18 4.93 124.76 4.93H120.21C119.79 4.93 119.51 5.28 119.51 5.7V36.64ZM138.101 53.09C138.101 53.65 138.521 54 139.081 54H149.301C153.081 54 156.441 50.99 156.441 47.28V12C156.441 8.29 153.361 5 149.581 5H139.081C138.521 5 138.101 5.42 138.101 5.98V53.09ZM144.121 47V11.65C144.121 11.23 144.471 10.95 144.891 10.95H147.831C149.441 10.95 150.771 12.42 150.771 13.96V45.18C150.771 46.72 149.441 47.98 147.831 47.98H145.101C144.541 47.98 144.121 47.56 144.121 47ZM176.786 4.02C172.236 4.02 167.616 6.33 167.616 13.4V45.67C167.616 52.74 172.236 55.05 176.786 55.05C181.406 55.05 185.956 52.74 185.956 45.67V13.4C185.956 6.33 181.406 4.02 176.786 4.02ZM179.936 45.46C179.936 47.14 179.446 48.82 176.786 48.82C174.126 48.82 173.636 47.14 173.636 45.46V13.54C173.636 11.93 174.126 10.25 176.786 10.25C179.446 10.25 179.936 11.93 179.936 13.54V45.46Z" fill="#888888"/>
	<rect x="6.27936" y="4.94281" width="14.0042" height="43.2554" rx="7.00209" stroke="#7D87A1" stroke-width="6"/>
	<rect x="11.3586" y="47.3393" width="3.13268" height="19.28" rx="1.56634" fill="#7D87A1" stroke="#7D87A1" stroke-width="3.13268"/>
	<rect x="3" y="3.91666" width="14.0042" height="43.2554" rx="7.00209" stroke="#2B3F73" stroke-width="6"/>
	<rect x="8.39087" y="46.7719" width="3.13269" height="19.28" rx="1.56634" fill="#2B3F73" stroke="#2B3F73" stroke-width="3.13269"/>
</svg>
