<svg width="161" height="27" viewBox="0 0 161 27" fill="none" xmlns="http://www.w3.org/2000/svg">
	<path d="M21.4844 26.3154H16.3125L10.875 11.9561L8.375 26.3154H3.03125L6.96875 3.56543H12.1875L17.6094 17.9248L20.0938 3.56543H25.4375L21.4844 26.3154ZM40.3906 16.6748H32.0312L31.0781 22.0967H40.9688L40.2344 26.3154H25L28.9375 3.56543H44.2031L43.4688 7.7998H33.5625L32.7188 12.5967H41.0938L40.3906 16.6748ZM61.0781 17.7686L65.8281 3.56543H71.2344L62.9844 26.3154H57.4531L56.5312 13.4248L51.625 26.3154H46.0938L44.9531 3.56543H50.1562L50.4688 17.7061L55.6875 3.56543H60.2344L61.0781 17.7686ZM84.2812 18.5967L82.9375 26.3154H77.5938L81.5312 3.56543L89.7031 3.58105C92.2344 3.58105 94.224 4.28418 95.6719 5.69043C97.1302 7.09668 97.7708 8.9196 97.5938 11.1592C97.4688 12.6904 96.9792 14.0186 96.125 15.1436C95.2708 16.2686 94.1406 17.1279 92.7344 17.7217C91.3385 18.3154 89.7708 18.6123 88.0312 18.6123L84.2812 18.5967ZM85.0156 14.3623L88.2344 14.3936C89.5885 14.3623 90.625 13.9248 91.3438 13.0811C92.0625 12.2269 92.349 11.18 92.2031 9.94043C92.1198 9.30501 91.875 8.80501 91.4688 8.44043C91.0729 8.06543 90.5469 7.8571 89.8906 7.81543L86.1562 7.7998L85.0156 14.3623ZM107.359 26.6279C104.995 26.5758 103.099 25.7946 101.672 24.2842C100.245 22.7738 99.4375 20.7529 99.25 18.2217C99.1458 16.9717 99.2448 15.5029 99.5469 13.8154C99.849 12.1175 100.385 10.555 101.156 9.12793C101.927 7.70085 102.891 6.51335 104.047 5.56543C105.984 3.97168 108.214 3.20085 110.734 3.25293C112.286 3.28418 113.641 3.64355 114.797 4.33105C115.964 5.00814 116.896 5.9873 117.594 7.26855C118.292 8.5498 118.698 10.0081 118.812 11.6436C118.896 12.7998 118.823 14.1175 118.594 15.5967C118.375 17.0654 117.964 18.4717 117.359 19.8154C116.766 21.1488 115.995 22.3258 115.047 23.3467C114.099 24.3675 112.979 25.18 111.688 25.7842C110.406 26.3779 108.964 26.6592 107.359 26.6279ZM113.453 11.5967C113.349 8.99251 112.339 7.63835 110.422 7.53418C108.943 7.46126 107.719 8.0498 106.75 9.2998C105.781 10.5394 105.141 12.3727 104.828 14.7998C104.63 16.2998 104.557 17.4613 104.609 18.2842C104.714 20.93 105.734 22.2894 107.672 22.3623C108.943 22.4248 110.036 21.9717 110.953 21.0029C111.87 20.0238 112.531 18.6071 112.938 16.7529C113.344 14.8883 113.516 13.1696 113.453 11.5967ZM132.062 20.1592C132.292 18.9821 131.656 18.0706 130.156 17.4248L127.594 16.3623C124 14.7477 122.292 12.5498 122.469 9.76855C122.542 8.49772 122.979 7.36751 123.781 6.37793C124.583 5.37793 125.693 4.60189 127.109 4.0498C128.526 3.49772 130.073 3.2321 131.75 3.25293C134 3.2946 135.807 3.95085 137.172 5.22168C138.547 6.49251 139.224 8.19564 139.203 10.3311H133.891C133.922 9.45605 133.734 8.75814 133.328 8.2373C132.932 7.70605 132.276 7.43001 131.359 7.40918C130.464 7.38835 129.672 7.59668 128.984 8.03418C128.297 8.47168 127.891 9.06022 127.766 9.7998C127.568 10.8415 128.339 11.6956 130.078 12.3623C131.828 13.029 133.099 13.6019 133.891 14.0811C136.38 15.5706 137.547 17.5811 137.391 20.1123C137.307 21.4248 136.885 22.5758 136.125 23.5654C135.365 24.555 134.307 25.3206 132.953 25.8623C131.609 26.404 130.099 26.6644 128.422 26.6436C127.193 26.6227 126.052 26.43 125 26.0654C123.948 25.7008 123.047 25.1696 122.297 24.4717C120.776 23.0654 120.047 21.2165 120.109 18.9248L125.469 18.9404C125.406 20.1071 125.63 20.9925 126.141 21.5967C126.651 22.1904 127.51 22.4873 128.719 22.4873C129.615 22.4873 130.359 22.2842 130.953 21.8779C131.557 21.4613 131.927 20.8883 132.062 20.1592ZM159.719 7.7998H153.094L149.891 26.3154H144.531L147.75 7.7998H141.234L141.984 3.56543H160.453L159.719 7.7998Z" fill="#F1F452"/>
	<path d="M18.4844 23.3154H13.3125L7.875 8.95605L5.375 23.3154H0.03125L3.96875 0.56543H9.1875L14.6094 14.9248L17.0938 0.56543H22.4375L18.4844 23.3154ZM37.3906 13.6748H29.0312L28.0781 19.0967H37.9688L37.2344 23.3154H22L25.9375 0.56543H41.2031L40.4688 4.7998H30.5625L29.7188 9.59668H38.0938L37.3906 13.6748ZM58.0781 14.7686L62.8281 0.56543H68.2344L59.9844 23.3154H54.4531L53.5312 10.4248L48.625 23.3154H43.0938L41.9531 0.56543H47.1562L47.4688 14.7061L52.6875 0.56543H57.2344L58.0781 14.7686ZM81.2812 15.5967L79.9375 23.3154H74.5938L78.5312 0.56543L86.7031 0.581055C89.2344 0.581055 91.224 1.28418 92.6719 2.69043C94.1302 4.09668 94.7708 5.9196 94.5938 8.15918C94.4688 9.69043 93.9792 11.0186 93.125 12.1436C92.2708 13.2686 91.1406 14.1279 89.7344 14.7217C88.3385 15.3154 86.7708 15.6123 85.0312 15.6123L81.2812 15.5967ZM82.0156 11.3623L85.2344 11.3936C86.5885 11.3623 87.625 10.9248 88.3438 10.0811C89.0625 9.22689 89.349 8.18001 89.2031 6.94043C89.1198 6.30501 88.875 5.80501 88.4688 5.44043C88.0729 5.06543 87.5469 4.8571 86.8906 4.81543L83.1562 4.7998L82.0156 11.3623ZM104.359 23.6279C101.995 23.5758 100.099 22.7946 98.6719 21.2842C97.2448 19.7738 96.4375 17.7529 96.25 15.2217C96.1458 13.9717 96.2448 12.5029 96.5469 10.8154C96.849 9.11751 97.3854 7.55501 98.1562 6.12793C98.9271 4.70085 99.8906 3.51335 101.047 2.56543C102.984 0.97168 105.214 0.200846 107.734 0.25293C109.286 0.28418 110.641 0.643555 111.797 1.33105C112.964 2.00814 113.896 2.9873 114.594 4.26855C115.292 5.5498 115.698 7.00814 115.812 8.64355C115.896 9.7998 115.823 11.1175 115.594 12.5967C115.375 14.0654 114.964 15.4717 114.359 16.8154C113.766 18.1488 112.995 19.3258 112.047 20.3467C111.099 21.3675 109.979 22.18 108.688 22.7842C107.406 23.3779 105.964 23.6592 104.359 23.6279ZM110.453 8.59668C110.349 5.99251 109.339 4.63835 107.422 4.53418C105.943 4.46126 104.719 5.0498 103.75 6.2998C102.781 7.53939 102.141 9.37272 101.828 11.7998C101.63 13.2998 101.557 14.4613 101.609 15.2842C101.714 17.93 102.734 19.2894 104.672 19.3623C105.943 19.4248 107.036 18.9717 107.953 18.0029C108.87 17.0238 109.531 15.6071 109.938 13.7529C110.344 11.8883 110.516 10.1696 110.453 8.59668ZM129.062 17.1592C129.292 15.9821 128.656 15.0706 127.156 14.4248L124.594 13.3623C121 11.7477 119.292 9.5498 119.469 6.76855C119.542 5.49772 119.979 4.36751 120.781 3.37793C121.583 2.37793 122.693 1.60189 124.109 1.0498C125.526 0.497721 127.073 0.232096 128.75 0.25293C131 0.294596 132.807 0.950846 134.172 2.22168C135.547 3.49251 136.224 5.19564 136.203 7.33105H130.891C130.922 6.45605 130.734 5.75814 130.328 5.2373C129.932 4.70605 129.276 4.43001 128.359 4.40918C127.464 4.38835 126.672 4.59668 125.984 5.03418C125.297 5.47168 124.891 6.06022 124.766 6.7998C124.568 7.84147 125.339 8.69564 127.078 9.3623C128.828 10.029 130.099 10.6019 130.891 11.0811C133.38 12.5706 134.547 14.5811 134.391 17.1123C134.307 18.4248 133.885 19.5758 133.125 20.5654C132.365 21.555 131.307 22.3206 129.953 22.8623C128.609 23.404 127.099 23.6644 125.422 23.6436C124.193 23.6227 123.052 23.43 122 23.0654C120.948 22.7008 120.047 22.1696 119.297 21.4717C117.776 20.0654 117.047 18.2165 117.109 15.9248L122.469 15.9404C122.406 17.1071 122.63 17.9925 123.141 18.5967C123.651 19.1904 124.51 19.4873 125.719 19.4873C126.615 19.4873 127.359 19.2842 127.953 18.8779C128.557 18.4613 128.927 17.8883 129.062 17.1592ZM156.719 4.7998H150.094L146.891 23.3154H141.531L144.75 4.7998H138.234L138.984 0.56543H157.453L156.719 4.7998Z" fill="#7D87A1"/>
</svg>

