<svg width="39" height="45" viewBox="0 0 39 45" fill="none" xmlns="http://www.w3.org/2000/svg">
	<ellipse cx="19.7223" cy="22.3154" rx="18.9444" ry="22" fill="#888888"/>
	<path d="M14.3808 31.6315C13.621 31.6315 12.9958 31.6036 12.3154 31.17C11.9053 30.9087 11.4714 30.895 11.1587 30.4009C10.7419 29.7424 10.5706 28.9541 10.4354 28.1476C10.3528 27.654 10.3531 27.1862 10.3311 26.6862C10.3091 26.1841 10.25 25.6989 10.25 25.1935C10.25 24.3218 10.25 23.4501 10.25 22.5784C10.25 21.7178 10.3752 20.8637 10.3752 20.0031C10.3752 19.0548 10.3894 18.1711 10.8156 17.3481C11.036 16.9226 11.6957 16.7494 12.0766 16.6701C12.3723 16.6087 12.6618 16.4536 12.9621 16.4536C13.3331 16.4536 13.7109 16.4678 14.0794 16.5163C14.5684 16.5807 15.0331 16.688 15.5282 16.7129C16.1027 16.7417 16.7111 16.758 17.2807 16.8411C17.9477 16.9383 18.5937 16.9664 19.265 16.9664C19.8545 16.9664 20.4252 16.8967 21.0105 16.8667C21.4926 16.842 21.974 16.8126 22.457 16.8126C22.675 16.8126 22.8848 16.7768 23.1014 16.7642C23.2313 16.7566 23.4147 16.8058 23.5372 16.7385C24.1108 16.4232 24.7703 16.4892 25.3777 16.3625C25.851 16.2637 26.3956 16.3511 26.8752 16.3511C27.0735 16.3511 27.2581 16.3314 27.4431 16.4309C27.6174 16.5246 27.7379 16.7195 27.8998 16.8411C28.2665 17.1165 28.6809 17.4106 28.827 17.9293C28.9859 18.4932 29.0264 19.1138 29.0264 19.7154C29.0264 20.9184 29.1755 22.1128 29.1933 23.3133C29.2013 23.8569 29.1691 24.3914 29.1191 24.9314C29.0758 25.3987 29.0762 25.8678 29.0171 26.3329C28.8804 27.4077 28.9429 28.5206 28.9429 29.6089C28.9429 30.039 28.9949 30.695 28.63 30.9364C28.4236 31.073 28.1524 31.1133 27.923 31.1586C27.567 31.2289 27.1962 31.3058 26.8381 31.3637C26.0003 31.4992 25.1794 31.7483 24.3439 31.8993C23.9452 31.9713 23.5452 32.093 23.1408 32.093C22.6872 32.093 22.2336 32.093 21.7801 32.093C21.3273 32.093 20.8849 32.0932 20.4356 32.1699C20.0516 32.2355 19.601 32.3151 19.2186 32.2183C18.7844 32.1085 18.2791 31.9987 17.8347 31.9905C17.4474 31.9832 17.0714 32.093 16.685 32.093C16.5096 32.093 16.3342 32.093 16.1588 32.093C15.9907 32.093 15.84 32.1807 15.6743 32.1956C15.4924 32.2119 15.2731 32.2235 15.0994 32.2867C14.8719 32.3695 14.5944 32.2468 14.3599 32.2468C14.277 32.2468 14.216 32.1858 14.1397 32.1557C14.0471 32.1191 13.9386 32.1545 13.843 32.1414C13.7348 32.1267 13.5371 32.1218 13.4397 32.0674C13.1983 31.9325 12.9805 31.9682 12.7442 31.7853C12.5448 31.631 12.3585 31.4298 12.2528 31.17" stroke="white" stroke-width="4" stroke-linecap="round" stroke-linejoin="round"/>
	<path d="M14.6857 14.9758C14.7698 14.4553 14.9228 13.7474 15.1961 13.2944C15.3716 13.0034 15.4248 12.6492 15.5741 12.3446C15.7167 12.0536 15.7939 11.6852 15.9641 11.4134C16.0648 11.2527 16.0414 11.0843 16.2218 11.0382C16.7064 10.9147 17.2124 10.8461 17.7049 10.7722C18.0799 10.7159 18.5533 10.6455 18.9087 10.5008C19.1214 10.4142 19.4161 10.4142 19.6407 10.3811C19.8959 10.3435 20.1446 10.3306 20.4015 10.3306C20.8531 10.3306 21.3266 10.2839 21.7739 10.3545C21.8172 10.3613 22.3388 10.3458 22.3541 10.405C22.412 10.629 22.5661 10.8623 22.6502 11.0861C22.8665 11.6613 23.0834 12.2328 23.3292 12.7942C23.4637 13.1014 23.493 13.4528 23.6133 13.752C23.7378 14.0614 23.8614 14.417 23.9263 14.747C23.9482 14.8581 24.1037 15.0922 23.9817 15.1221C23.6713 15.1983 23.3519 15.2396 23.0355 15.3004C22.7158 15.3618 22.7166 15.2336 22.5973 14.9465C22.3426 14.3341 22.1825 13.6432 22.0098 12.9964C21.9404 12.7366 21.8455 12.5269 21.7401 12.294C21.6288 12.048 21.5112 12.115 21.2538 12.0785C20.0794 11.9121 18.8879 12.1982 17.7193 12.1982C17.32 12.1982 17.2634 12.2522 17.1535 12.6771C17.0421 13.1081 16.9625 13.5456 16.8092 13.9595C16.7192 14.2028 16.5712 14.3608 16.4409 14.5687C16.2793 14.8265 15.9942 15.2631 15.6825 15.2631C15.3069 15.2631 14.9365 15.1195 14.5557 15.1195" stroke="white" stroke-width="2" stroke-linecap="round" stroke-linejoin="round"/>
</svg>
