<svg width="39" height="45" viewBox="0 0 39 45" fill="none" xmlns="http://www.w3.org/2000/svg">
	<ellipse cx="19.3889" cy="22.3154" rx="18.9445" ry="22" fill="#2B3F73"/>
	<path d="M15.0125 31.8938C15.5166 32.143 15.9573 32.5434 16.4385 32.849C16.6157 32.8814 16.8015 32.9443 16.9676 32.9793C17.3892 33.0683 17.7799 33.0833 18.1942 33.2312C18.7812 33.4407 19.4607 33.2089 20.0317 33.0829C20.6181 32.9535 21.1405 32.5261 21.7632 32.5261C22.4618 32.5261 23.1446 32.3882 23.8405 32.375C24.3744 32.3649 24.9024 32.3011 25.4175 32.1344C25.5353 32.0963 25.6444 32.1259 25.7633 32.07C25.8691 32.0203 25.967 31.9491 26.0723 31.8994C26.2985 31.7926 26.4787 31.6394 26.6625 31.4461C27.1206 30.9643 27.419 30.1995 27.2435 29.454C27.1985 29.263 26.8596 28.9316 26.6948 28.9C26.4998 28.8627 26.263 28.6511 26.0654 28.5727C25.965 28.5329 25.2858 28.3955 25.5236 28.2845C25.6674 28.2174 25.7973 28.081 25.9501 28.0439C26.3382 27.9497 26.773 27.6982 27.1098 27.4507C27.3327 27.2869 27.5408 27.0421 27.6908 26.782C27.9822 26.2768 28.1152 25.504 27.8775 24.927C27.6811 24.4504 27.377 23.9426 27.0268 23.612C26.6828 23.2874 26.2592 23.2219 25.8463 23.1364C25.5198 23.0688 25.1821 23.1244 24.8549 23.1476C24.4993 23.1728 24.1413 23.1588 23.7852 23.1588H24.0019C24.754 23.1588 25.7417 22.96 26.2221 22.1711C26.4394 21.8145 26.688 21.52 26.8585 21.1191C26.9954 20.7972 27.0902 20.4374 27.1605 20.0867C27.2489 19.6457 27.2576 18.7361 26.9253 18.4136C26.5146 18.0148 26.2538 17.3414 25.7495 17.0762C25.1126 16.7413 24.4967 16.5547 23.8128 16.4495C23.164 16.3497 22.491 16.4087 21.8831 16.7125C21.7307 16.7886 20.7409 17.5527 20.6588 17.3392C20.5616 17.0863 20.6332 16.6093 20.6035 16.3208C20.5678 15.9738 20.6132 15.6197 20.592 15.2716C20.5796 15.0692 20.5106 14.8649 20.479 14.6644C20.4221 14.304 20.4029 13.8973 20.26 13.5649C20.1068 13.2085 19.959 12.8539 19.8104 12.4933C19.6641 12.1383 19.4506 11.8776 19.257 11.5644C19.0178 11.1772 18.576 10.8749 18.2243 10.6342L18.2057 10.6215C17.8665 10.3893 17.3613 10.2762 16.9745 10.3277C15.6269 10.5072 14.8517 11.8069 14.3047 13.2039C13.7269 14.6797 13.2936 16.2133 12.8583 17.7541L12.8522 17.7757C12.4543 19.1842 12.5018 20.659 12.5018 22.1292C12.5018 23.2119 12.5449 24.3201 12.6078 25.3999C12.6698 26.4638 12.7773 27.4401 13.032 28.4636C13.1938 29.1134 13.5246 29.7474 13.809 30.3326C13.9695 30.6627 14.13 31.0551 14.3554 31.3286C14.5373 31.5493 14.7745 31.7761 15.0125 31.8938Z" fill="white"/>
	<path d="M16.4858 32.8786C15.9861 32.5697 15.533 32.1511 15.0125 31.8938C14.7745 31.7761 14.5373 31.5493 14.3554 31.3286C14.13 31.0551 13.9695 30.6627 13.809 30.3326C13.5246 29.7474 13.1938 29.1134 13.032 28.4636C12.7773 27.4401 12.6698 26.4638 12.6078 25.3999C12.5449 24.3201 12.5018 23.2119 12.5018 22.1292C12.5018 20.659 12.4543 19.1842 12.8522 17.7757C13.2896 16.2276 13.7242 14.6866 14.3047 13.2039C14.8517 11.8069 15.6269 10.5072 16.9745 10.3277C17.3613 10.2762 17.8665 10.3893 18.2057 10.6215C18.5603 10.8642 19.0135 11.1704 19.257 11.5644C19.4506 11.8776 19.6641 12.1383 19.8104 12.4933C19.959 12.8539 20.1068 13.2085 20.26 13.5649C20.4029 13.8973 20.4221 14.304 20.479 14.6644C20.5106 14.8649 20.5796 15.0692 20.592 15.2716C20.6132 15.6197 20.5678 15.9738 20.6035 16.3208C20.6332 16.6093 20.5616 17.0863 20.6588 17.3392C20.7409 17.5527 21.7307 16.7886 21.8831 16.7125C22.491 16.4087 23.164 16.3497 23.8128 16.4495C24.4967 16.5547 25.1126 16.7413 25.7495 17.0762C26.2538 17.3414 26.5146 18.0148 26.9253 18.4136C27.2576 18.7361 27.2489 19.6457 27.1605 20.0867C27.0902 20.4374 26.9954 20.7972 26.8585 21.1191C26.688 21.52 26.4394 21.8145 26.2221 22.1711C25.7417 22.96 24.754 23.1588 24.0019 23.1588C23.9629 23.1588 23.7613 23.1588 23.7852 23.1588C24.1413 23.1588 24.4993 23.1728 24.8549 23.1476C25.1821 23.1244 25.5198 23.0688 25.8463 23.1364C26.2592 23.2219 26.6828 23.2874 27.0268 23.612C27.377 23.9426 27.6811 24.4504 27.8775 24.927C28.1152 25.504 27.9822 26.2768 27.6908 26.782C27.5408 27.0421 27.3327 27.2869 27.1098 27.4507C26.773 27.6982 26.3382 27.9497 25.9501 28.0439C25.7973 28.081 25.6674 28.2174 25.5236 28.2845C25.2858 28.3955 25.965 28.5329 26.0654 28.5727C26.263 28.6511 26.4998 28.8627 26.6948 28.9C26.8596 28.9316 27.1985 29.263 27.2435 29.454C27.419 30.1995 27.1206 30.9643 26.6625 31.4461C26.4787 31.6394 26.2985 31.7926 26.0723 31.8994C25.967 31.9491 25.8691 32.0203 25.7633 32.07C25.6444 32.1259 25.5353 32.0963 25.4175 32.1344C24.9024 32.3011 24.3744 32.3649 23.8405 32.375C23.1446 32.3882 22.4618 32.5261 21.7632 32.5261C21.1405 32.5261 20.6181 32.9535 20.0317 33.0829C19.4607 33.2089 18.7812 33.4407 18.1942 33.2312C17.7799 33.0833 17.3892 33.0683 16.9676 32.9793C16.7368 32.9306 16.468 32.8283 16.2368 32.8283" stroke="white" stroke-linecap="round" stroke-linejoin="round"/>
</svg>
