<svg width="82" height="83" viewBox="0 0 82 83" fill="none" xmlns="http://www.w3.org/2000/svg">
	<circle cx="41" cy="41.3154" r="41" fill="#AEAEAE"/>
	<rect x="23" y="26.3154" width="37" height="30" rx="5" fill="white"/>
	<path d="M28.4815 31.77C29.8817 33.0806 30.834 34.7599 32.4439 35.8417C33.3091 36.4232 34.0766 37.1153 34.8764 37.7764C35.3211 38.144 35.8082 38.5419 36.1807 38.9968C36.5161 39.4062 37.0148 39.6106 37.4078 39.9503C37.7722 40.2654 38.1327 40.7301 38.5514 40.9744C39.3253 41.426 40.0657 41.9278 40.749 42.5013C41.0992 42.7953 41.3113 42.701 41.6422 42.3909C42.1305 41.9334 42.5397 41.3403 43.0949 40.9591C43.4424 40.7204 43.8141 40.5906 44.121 40.2937C44.4667 39.9594 44.8104 39.6054 45.1719 39.288C45.7896 38.7457 46.6159 38.3548 47.3108 37.9144C47.6281 37.7133 47.8735 37.4537 48.2071 37.2767C48.5973 37.0696 48.9763 36.7865 49.3074 36.4979C50.0021 35.8923 50.7919 35.403 51.5143 34.833C52.2328 34.266 52.866 33.6159 53.5418 33.0025C53.8948 32.6822 54.1857 32.3209 54.5185 31.9907" stroke="#AEAEAE" stroke-width="4" stroke-linecap="round" stroke-linejoin="round"/>
</svg>
