<svg width="313" height="33" viewBox="0 0 313 33" fill="none" xmlns="http://www.w3.org/2000/svg">
	<path d="M17.8809 24.6895C18.153 23.2917 17.3984 22.2093 15.6172 21.4424L12.5742 20.1807C8.30664 18.2633 6.27799 15.6533 6.48828 12.3506C6.57487 10.8415 7.0944 9.49935 8.04688 8.32422C8.99935 7.13672 10.3167 6.21517 11.999 5.55957C13.6813 4.90397 15.5182 4.58854 17.5098 4.61328C20.1816 4.66276 22.3278 5.44206 23.9482 6.95117C25.5811 8.46029 26.3851 10.4827 26.3604 13.0186H20.0518C20.0889 11.9795 19.8662 11.1507 19.3838 10.5322C18.9137 9.90137 18.1344 9.57357 17.0459 9.54883C15.9821 9.52409 15.042 9.77148 14.2256 10.291C13.4092 10.8105 12.9268 11.5094 12.7783 12.3877C12.5433 13.6247 13.4587 14.639 15.5244 15.4307C17.6025 16.2223 19.1117 16.9027 20.0518 17.4717C23.0081 19.2406 24.3936 21.6279 24.208 24.6338C24.109 26.1924 23.6081 27.5592 22.7051 28.7344C21.8021 29.9095 20.5465 30.8187 18.9385 31.4619C17.3428 32.1051 15.5492 32.4144 13.5576 32.3896C12.098 32.3649 10.7435 32.1361 9.49414 31.7031C8.24479 31.2702 7.1748 30.6393 6.28418 29.8105C4.47819 28.1406 3.6123 25.945 3.68652 23.2236L10.0508 23.2422C9.97656 24.6276 10.2425 25.679 10.8486 26.3965C11.4548 27.1016 12.4753 27.4541 13.9102 27.4541C14.974 27.4541 15.8584 27.2129 16.5635 26.7305C17.2809 26.2357 17.7201 25.5553 17.8809 24.6895ZM44.5811 20.5518H34.6543L33.5225 26.9902H45.2676L44.3955 32H26.3047L30.9805 4.98438H49.1084L48.2363 10.0127H36.4727L35.4707 15.709H45.416L44.5811 20.5518ZM62.9873 26.9531H54.3594L51.9658 32H44.9707L59.2764 4.98438H65.251L70.2422 32H63.6367L62.9873 26.9531ZM56.7344 21.9248H62.3379L61.1504 12.6104L56.7344 21.9248ZM83.9727 22.4629H80.4473L78.7773 32H72.4316L77.1074 4.98438L86.6445 5.00293C89.6999 5.00293 92.0501 5.72038 93.6953 7.15527C95.3529 8.5778 96.0951 10.526 95.9219 13C95.7858 14.9544 95.223 16.5749 94.2334 17.8613C93.2438 19.1354 91.8584 20.1436 90.0771 20.8857L93.7139 31.6846V32H86.9414L83.9727 22.4629ZM81.3008 17.4346L85.0117 17.4717C86.026 17.4717 86.9043 17.2243 87.6465 16.7295C88.401 16.2347 88.9391 15.5605 89.2607 14.707C89.5824 13.8411 89.6751 13.0062 89.5391 12.2021C89.2917 10.8291 88.4134 10.1055 86.9043 10.0312L82.5996 10.0127L81.3008 17.4346ZM119.301 22.7969C119.14 24.6895 118.515 26.3717 117.427 27.8438C116.351 29.3158 114.928 30.4476 113.159 31.2393C111.403 32.0309 109.498 32.4082 107.444 32.3711C104.624 32.3092 102.404 31.4001 100.783 29.6436C99.1628 27.887 98.2783 25.5059 98.1299 22.5C98.0186 20.4961 98.235 18.3128 98.7793 15.9502C99.3359 13.5876 100.233 11.5342 101.47 9.79004C102.719 8.03353 104.185 6.72233 105.867 5.85645C107.562 4.97819 109.411 4.55762 111.415 4.59473C114.359 4.64421 116.685 5.52865 118.392 7.24805C120.111 8.96745 121.045 11.3363 121.193 14.3545L114.866 14.3359C114.891 12.6908 114.594 11.5156 113.976 10.8105C113.357 10.1055 112.38 9.72819 111.044 9.67871C107.704 9.56738 105.669 12.165 104.939 17.4717C104.605 19.8714 104.438 21.5846 104.438 22.6113C104.377 25.6543 105.502 27.2191 107.815 27.3057C109.312 27.3551 110.506 26.9902 111.396 26.2109C112.287 25.4193 112.856 24.306 113.104 22.8711L119.301 22.7969ZM142.977 32H136.668L138.616 20.7188H129.357L127.391 32H121.045L125.721 4.98438H132.085L130.211 15.709H139.488L141.344 4.98438H147.671L142.977 32ZM168.062 22.4629H164.537L162.867 32H156.521L161.197 4.98438L170.734 5.00293C173.79 5.00293 176.14 5.72038 177.785 7.15527C179.443 8.5778 180.185 10.526 180.012 13C179.876 14.9544 179.313 16.5749 178.323 17.8613C177.334 19.1354 175.948 20.1436 174.167 20.8857L177.804 31.6846V32H171.031L168.062 22.4629ZM165.391 17.4346L169.102 17.4717C170.116 17.4717 170.994 17.2243 171.736 16.7295C172.491 16.2347 173.029 15.5605 173.351 14.707C173.672 13.8411 173.765 13.0062 173.629 12.2021C173.382 10.8291 172.503 10.1055 170.994 10.0312L166.689 10.0127L165.391 17.4346ZM199.03 20.5518H189.104L187.972 26.9902H199.717L198.845 32H180.754L185.43 4.98438H203.558L202.686 10.0127H190.922L189.92 15.709H199.865L199.03 20.5518ZM216.416 24.6895C216.688 23.2917 215.934 22.2093 214.152 21.4424L211.109 20.1807C206.842 18.2633 204.813 15.6533 205.023 12.3506C205.11 10.8415 205.63 9.49935 206.582 8.32422C207.535 7.13672 208.852 6.21517 210.534 5.55957C212.216 4.90397 214.053 4.58854 216.045 4.61328C218.717 4.66276 220.863 5.44206 222.483 6.95117C224.116 8.46029 224.92 10.4827 224.896 13.0186H218.587C218.624 11.9795 218.401 11.1507 217.919 10.5322C217.449 9.90137 216.67 9.57357 215.581 9.54883C214.517 9.52409 213.577 9.77148 212.761 10.291C211.944 10.8105 211.462 11.5094 211.313 12.3877C211.078 13.6247 211.994 14.639 214.06 15.4307C216.138 16.2223 217.647 16.9027 218.587 17.4717C221.543 19.2406 222.929 21.6279 222.743 24.6338C222.644 26.1924 222.143 27.5592 221.24 28.7344C220.337 29.9095 219.082 30.8187 217.474 31.4619C215.878 32.1051 214.084 32.4144 212.093 32.3896C210.633 32.3649 209.279 32.1361 208.029 31.7031C206.78 31.2702 205.71 30.6393 204.819 29.8105C203.013 28.1406 202.147 25.945 202.222 23.2236L208.586 23.2422C208.512 24.6276 208.778 25.679 209.384 26.3965C209.99 27.1016 211.01 27.4541 212.445 27.4541C213.509 27.4541 214.394 27.2129 215.099 26.7305C215.816 26.2357 216.255 25.5553 216.416 24.6895ZM250.186 4.98438L247.18 22.6113C246.747 25.6667 245.485 28.0726 243.395 29.8291C241.316 31.5856 238.694 32.4391 235.527 32.3896C233.561 32.3525 231.854 31.932 230.406 31.1279C228.959 30.3115 227.889 29.1673 227.196 27.6953C226.516 26.2109 226.287 24.5225 226.51 22.6299L229.516 4.98438H235.898L232.911 22.6484C232.837 23.2669 232.825 23.8545 232.874 24.4111C232.936 25.3265 233.22 26.0378 233.728 26.5449C234.247 27.0521 234.977 27.3242 235.917 27.3613C238.638 27.4479 240.277 25.8708 240.834 22.6299L243.84 4.98438H250.186ZM256.735 26.9902H267.738L266.866 32H249.518L254.193 4.98438H260.558L256.735 26.9902ZM290.301 10.0127H282.434L278.63 32H272.266L276.088 10.0127H268.351L269.241 4.98438H291.173L290.301 10.0127ZM303.846 24.6895C304.118 23.2917 303.363 22.2093 301.582 21.4424L298.539 20.1807C294.271 18.2633 292.243 15.6533 292.453 12.3506C292.54 10.8415 293.059 9.49935 294.012 8.32422C294.964 7.13672 296.282 6.21517 297.964 5.55957C299.646 4.90397 301.483 4.58854 303.475 4.61328C306.146 4.66276 308.293 5.44206 309.913 6.95117C311.546 8.46029 312.35 10.4827 312.325 13.0186H306.017C306.054 11.9795 305.831 11.1507 305.349 10.5322C304.879 9.90137 304.099 9.57357 303.011 9.54883C301.947 9.52409 301.007 9.77148 300.19 10.291C299.374 10.8105 298.892 11.5094 298.743 12.3877C298.508 13.6247 299.424 14.639 301.489 15.4307C303.567 16.2223 305.076 16.9027 306.017 17.4717C308.973 19.2406 310.358 21.6279 310.173 24.6338C310.074 26.1924 309.573 27.5592 308.67 28.7344C307.767 29.9095 306.511 30.8187 304.903 31.4619C303.308 32.1051 301.514 32.4144 299.522 32.3896C298.063 32.3649 296.708 32.1361 295.459 31.7031C294.21 31.2702 293.14 30.6393 292.249 29.8105C290.443 28.1406 289.577 25.945 289.651 23.2236L296.016 23.2422C295.941 24.6276 296.207 25.679 296.813 26.3965C297.42 27.1016 298.44 27.4541 299.875 27.4541C300.939 27.4541 301.823 27.2129 302.528 26.7305C303.246 26.2357 303.685 25.5553 303.846 24.6895Z" fill="#F1F452"/>
	<path d="M14.8809 20.6895C15.153 19.2917 14.3984 18.2093 12.6172 17.4424L9.57422 16.1807C5.30664 14.2633 3.27799 11.6533 3.48828 8.35059C3.57487 6.84147 4.0944 5.49935 5.04688 4.32422C5.99935 3.13672 7.31673 2.21517 8.99902 1.55957C10.6813 0.903971 12.5182 0.588542 14.5098 0.613281C17.1816 0.66276 19.3278 1.44206 20.9482 2.95117C22.5811 4.46029 23.3851 6.48275 23.3604 9.01855H17.0518C17.0889 7.97949 16.8662 7.15072 16.3838 6.53223C15.9137 5.90137 15.1344 5.57357 14.0459 5.54883C12.9821 5.52409 12.042 5.77148 11.2256 6.29102C10.4092 6.81055 9.92676 7.50944 9.77832 8.3877C9.54329 9.62467 10.4587 10.639 12.5244 11.4307C14.6025 12.2223 16.1117 12.9027 17.0518 13.4717C20.0081 15.2406 21.3936 17.6279 21.208 20.6338C21.109 22.1924 20.6081 23.5592 19.7051 24.7344C18.8021 25.9095 17.5465 26.8187 15.9385 27.4619C14.3428 28.1051 12.5492 28.4144 10.5576 28.3896C9.09798 28.3649 7.74349 28.1361 6.49414 27.7031C5.24479 27.2702 4.1748 26.6393 3.28418 25.8105C1.47819 24.1406 0.612305 21.945 0.686523 19.2236L7.05078 19.2422C6.97656 20.6276 7.24251 21.679 7.84863 22.3965C8.45475 23.1016 9.47526 23.4541 10.9102 23.4541C11.974 23.4541 12.8584 23.2129 13.5635 22.7305C14.2809 22.2357 14.7201 21.5553 14.8809 20.6895ZM41.5811 16.5518H31.6543L30.5225 22.9902H42.2676L41.3955 28H23.3047L27.9805 0.984375H46.1084L45.2363 6.0127H33.4727L32.4707 11.709H42.416L41.5811 16.5518ZM59.9873 22.9531H51.3594L48.9658 28H41.9707L56.2764 0.984375H62.251L67.2422 28H60.6367L59.9873 22.9531ZM53.7344 17.9248H59.3379L58.1504 8.61035L53.7344 17.9248ZM80.9727 18.4629H77.4473L75.7773 28H69.4316L74.1074 0.984375L83.6445 1.00293C86.6999 1.00293 89.0501 1.72038 90.6953 3.15527C92.3529 4.5778 93.0951 6.52604 92.9219 9C92.7858 10.9544 92.223 12.5749 91.2334 13.8613C90.2438 15.1354 88.8584 16.1436 87.0771 16.8857L90.7139 27.6846V28H83.9414L80.9727 18.4629ZM78.3008 13.4346L82.0117 13.4717C83.026 13.4717 83.9043 13.2243 84.6465 12.7295C85.401 12.2347 85.9391 11.5605 86.2607 10.707C86.5824 9.84115 86.6751 9.00618 86.5391 8.20215C86.2917 6.8291 85.4134 6.10547 83.9043 6.03125L79.5996 6.0127L78.3008 13.4346ZM116.301 18.7969C116.14 20.6895 115.515 22.3717 114.427 23.8438C113.351 25.3158 111.928 26.4476 110.159 27.2393C108.403 28.0309 106.498 28.4082 104.444 28.3711C101.624 28.3092 99.4036 27.4001 97.7832 25.6436C96.1628 23.887 95.2783 21.5059 95.1299 18.5C95.0186 16.4961 95.235 14.3128 95.7793 11.9502C96.3359 9.58757 97.2327 7.53418 98.4697 5.79004C99.7191 4.03353 101.185 2.72233 102.867 1.85645C104.562 0.97819 106.411 0.557617 108.415 0.594727C111.359 0.644206 113.685 1.52865 115.392 3.24805C117.111 4.96745 118.045 7.33626 118.193 10.3545L111.866 10.3359C111.891 8.69076 111.594 7.51562 110.976 6.81055C110.357 6.10547 109.38 5.72819 108.044 5.67871C104.704 5.56738 102.669 8.16504 101.939 13.4717C101.605 15.8714 101.438 17.5846 101.438 18.6113C101.377 21.6543 102.502 23.2191 104.815 23.3057C106.312 23.3551 107.506 22.9902 108.396 22.2109C109.287 21.4193 109.856 20.306 110.104 18.8711L116.301 18.7969ZM139.977 28H133.668L135.616 16.7188H126.357L124.391 28H118.045L122.721 0.984375H129.085L127.211 11.709H136.488L138.344 0.984375H144.671L139.977 28ZM165.062 18.4629H161.537L159.867 28H153.521L158.197 0.984375L167.734 1.00293C170.79 1.00293 173.14 1.72038 174.785 3.15527C176.443 4.5778 177.185 6.52604 177.012 9C176.876 10.9544 176.313 12.5749 175.323 13.8613C174.334 15.1354 172.948 16.1436 171.167 16.8857L174.804 27.6846V28H168.031L165.062 18.4629ZM162.391 13.4346L166.102 13.4717C167.116 13.4717 167.994 13.2243 168.736 12.7295C169.491 12.2347 170.029 11.5605 170.351 10.707C170.672 9.84115 170.765 9.00618 170.629 8.20215C170.382 6.8291 169.503 6.10547 167.994 6.03125L163.689 6.0127L162.391 13.4346ZM196.03 16.5518H186.104L184.972 22.9902H196.717L195.845 28H177.754L182.43 0.984375H200.558L199.686 6.0127H187.922L186.92 11.709H196.865L196.03 16.5518ZM213.416 20.6895C213.688 19.2917 212.934 18.2093 211.152 17.4424L208.109 16.1807C203.842 14.2633 201.813 11.6533 202.023 8.35059C202.11 6.84147 202.63 5.49935 203.582 4.32422C204.535 3.13672 205.852 2.21517 207.534 1.55957C209.216 0.903971 211.053 0.588542 213.045 0.613281C215.717 0.66276 217.863 1.44206 219.483 2.95117C221.116 4.46029 221.92 6.48275 221.896 9.01855H215.587C215.624 7.97949 215.401 7.15072 214.919 6.53223C214.449 5.90137 213.67 5.57357 212.581 5.54883C211.517 5.52409 210.577 5.77148 209.761 6.29102C208.944 6.81055 208.462 7.50944 208.313 8.3877C208.078 9.62467 208.994 10.639 211.06 11.4307C213.138 12.2223 214.647 12.9027 215.587 13.4717C218.543 15.2406 219.929 17.6279 219.743 20.6338C219.644 22.1924 219.143 23.5592 218.24 24.7344C217.337 25.9095 216.082 26.8187 214.474 27.4619C212.878 28.1051 211.084 28.4144 209.093 28.3896C207.633 28.3649 206.279 28.1361 205.029 27.7031C203.78 27.2702 202.71 26.6393 201.819 25.8105C200.013 24.1406 199.147 21.945 199.222 19.2236L205.586 19.2422C205.512 20.6276 205.778 21.679 206.384 22.3965C206.99 23.1016 208.01 23.4541 209.445 23.4541C210.509 23.4541 211.394 23.2129 212.099 22.7305C212.816 22.2357 213.255 21.5553 213.416 20.6895ZM247.186 0.984375L244.18 18.6113C243.747 21.6667 242.485 24.0726 240.395 25.8291C238.316 27.5856 235.694 28.4391 232.527 28.3896C230.561 28.3525 228.854 27.932 227.406 27.1279C225.959 26.3115 224.889 25.1673 224.196 23.6953C223.516 22.2109 223.287 20.5225 223.51 18.6299L226.516 0.984375H232.898L229.911 18.6484C229.837 19.2669 229.825 19.8545 229.874 20.4111C229.936 21.3265 230.22 22.0378 230.728 22.5449C231.247 23.0521 231.977 23.3242 232.917 23.3613C235.638 23.4479 237.277 21.8708 237.834 18.6299L240.84 0.984375H247.186ZM253.735 22.9902H264.738L263.866 28H246.518L251.193 0.984375H257.558L253.735 22.9902ZM287.301 6.0127H279.434L275.63 28H269.266L273.088 6.0127H265.351L266.241 0.984375H288.173L287.301 6.0127ZM300.846 20.6895C301.118 19.2917 300.363 18.2093 298.582 17.4424L295.539 16.1807C291.271 14.2633 289.243 11.6533 289.453 8.35059C289.54 6.84147 290.059 5.49935 291.012 4.32422C291.964 3.13672 293.282 2.21517 294.964 1.55957C296.646 0.903971 298.483 0.588542 300.475 0.613281C303.146 0.66276 305.293 1.44206 306.913 2.95117C308.546 4.46029 309.35 6.48275 309.325 9.01855H303.017C303.054 7.97949 302.831 7.15072 302.349 6.53223C301.879 5.90137 301.099 5.57357 300.011 5.54883C298.947 5.52409 298.007 5.77148 297.19 6.29102C296.374 6.81055 295.892 7.50944 295.743 8.3877C295.508 9.62467 296.424 10.639 298.489 11.4307C300.567 12.2223 302.076 12.9027 303.017 13.4717C305.973 15.2406 307.358 17.6279 307.173 20.6338C307.074 22.1924 306.573 23.5592 305.67 24.7344C304.767 25.9095 303.511 26.8187 301.903 27.4619C300.308 28.1051 298.514 28.4144 296.522 28.3896C295.063 28.3649 293.708 28.1361 292.459 27.7031C291.21 27.2702 290.14 26.6393 289.249 25.8105C287.443 24.1406 286.577 21.945 286.651 19.2236L293.016 19.2422C292.941 20.6276 293.207 21.679 293.813 22.3965C294.42 23.1016 295.44 23.4541 296.875 23.4541C297.939 23.4541 298.823 23.2129 299.528 22.7305C300.246 22.2357 300.685 21.5553 300.846 20.6895Z" fill="#7D87A1"/>
</svg>
