<svg width="82" height="83" viewBox="0 0 82 83" fill="none" xmlns="http://www.w3.org/2000/svg">
	<circle cx="41" cy="41.3154" r="41" fill="#F1F452"/>
	<path d="M56.44 35.2H50.68C50.98 31.78 51.52 26.38 51.52 26.38C51.52 25.84 51.16 25.48 50.68 25.48H47.14C46.66 25.48 46.3 25.84 46.3 26.38C46.3 26.38 45.76 31.78 45.46 35.2H39.64C39.94 31.78 40.48 26.38 40.48 26.38C40.48 25.84 40.12 25.48 39.64 25.48H36.1C35.62 25.48 35.26 25.84 35.26 26.38C35.26 26.38 34.72 31.78 34.42 35.2H28.3C27.94 35.2 27.64 35.5 27.64 35.86V39.16C27.64 39.52 27.94 39.82 28.3 39.82H34C33.64 43.12 33.64 43.42 33.28 46.72H27.22C26.86 46.72 26.56 47.02 26.56 47.38V50.68C26.56 51.04 26.86 51.34 27.22 51.34H32.86C32.56 54.76 32.02 60.16 32.02 60.16C32.02 60.7 32.38 61.06 32.86 61.06H36.4C36.88 61.06 37.24 60.7 37.24 60.16C37.24 60.16 37.78 54.76 38.08 51.34H43.9C43.6 54.76 43.06 60.16 43.06 60.16C43.06 60.7 43.42 61.06 43.9 61.06H47.44C47.92 61.06 48.28 60.7 48.28 60.16C48.28 60.16 48.82 54.76 49.12 51.34H54.76C55.12 51.34 55.42 51.04 55.42 50.68V47.38C55.42 47.02 55.12 46.72 54.76 46.72H49.54C49.9 43.42 49.9 43.12 50.26 39.82H56.44C56.8 39.82 57.1 39.52 57.1 39.16V35.86C57.1 35.5 56.8 35.2 56.44 35.2ZM44.32 46.72C42.46 46.72 40.48 46.72 38.5 46.72L39.22 39.82C41.98 39.82 42.22 39.82 45.04 39.82L44.32 46.72Z" fill="#E5E5E5"/>
	<path d="M54.44 33.2H48.68C48.98 29.78 49.52 24.38 49.52 24.38C49.52 23.84 49.16 23.48 48.68 23.48H45.14C44.66 23.48 44.3 23.84 44.3 24.38C44.3 24.38 43.76 29.78 43.46 33.2H37.64C37.94 29.78 38.48 24.38 38.48 24.38C38.48 23.84 38.12 23.48 37.64 23.48H34.1C33.62 23.48 33.26 23.84 33.26 24.38C33.26 24.38 32.72 29.78 32.42 33.2H26.3C25.94 33.2 25.64 33.5 25.64 33.86V37.16C25.64 37.52 25.94 37.82 26.3 37.82H32C31.64 41.12 31.64 41.42 31.28 44.72H25.22C24.86 44.72 24.56 45.02 24.56 45.38V48.68C24.56 49.04 24.86 49.34 25.22 49.34H30.86C30.56 52.76 30.02 58.16 30.02 58.16C30.02 58.7 30.38 59.06 30.86 59.06H34.4C34.88 59.06 35.24 58.7 35.24 58.16C35.24 58.16 35.78 52.76 36.08 49.34H41.9C41.6 52.76 41.06 58.16 41.06 58.16C41.06 58.7 41.42 59.06 41.9 59.06H45.44C45.92 59.06 46.28 58.7 46.28 58.16C46.28 58.16 46.82 52.76 47.12 49.34H52.76C53.12 49.34 53.42 49.04 53.42 48.68V45.38C53.42 45.02 53.12 44.72 52.76 44.72H47.54C47.9 41.42 47.9 41.12 48.26 37.82H54.44C54.8 37.82 55.1 37.52 55.1 37.16V33.86C55.1 33.5 54.8 33.2 54.44 33.2ZM42.32 44.72C40.46 44.72 38.48 44.72 36.5 44.72L37.22 37.82C39.98 37.82 40.22 37.82 43.04 37.82L42.32 44.72Z" fill="white"/>
</svg>
