<svg width="337" height="32" viewBox="0 0 337 32" fill="none" xmlns="http://www.w3.org/2000/svg">
	<path d="M13.1719 15.6738L20 3.98438H27.1436L15.4912 21.5928L13.877 31H7.41992L9.16406 20.9805L3.76465 4.00293L10.3701 3.98438L13.1719 15.6738ZM34.9736 31.3711C32.1657 31.3092 29.9144 30.3815 28.2197 28.5879C26.5251 26.7943 25.5664 24.3945 25.3438 21.3887C25.2201 19.9043 25.3376 18.1602 25.6963 16.1562C26.055 14.14 26.6921 12.2845 27.6074 10.5898C28.5228 8.89518 29.667 7.48503 31.04 6.35938C33.3408 4.4668 35.988 3.55143 38.9814 3.61328C40.8245 3.65039 42.4326 4.07715 43.8057 4.89355C45.1911 5.69759 46.2982 6.86035 47.127 8.38184C47.9557 9.90332 48.4382 11.6351 48.5742 13.5771C48.6732 14.9502 48.5866 16.515 48.3145 18.2715C48.0547 20.0156 47.5661 21.6855 46.8486 23.2812C46.1436 24.8646 45.2282 26.2624 44.1025 27.4746C42.9769 28.6868 41.6471 29.6517 40.1133 30.3691C38.5918 31.0742 36.8786 31.4082 34.9736 31.3711ZM42.21 13.5215C42.0863 10.429 40.8864 8.82096 38.6104 8.69727C36.8538 8.61068 35.4004 9.30957 34.25 10.7939C33.0996 12.266 32.3389 14.443 31.9678 17.3252C31.7327 19.1064 31.6462 20.4857 31.708 21.4629C31.8317 24.6048 33.0439 26.2191 35.3447 26.3057C36.8538 26.3799 38.1527 25.8418 39.2412 24.6914C40.3298 23.5286 41.1152 21.8464 41.5977 19.6445C42.0801 17.4303 42.2842 15.3893 42.21 13.5215ZM74.8105 3.98438L71.8047 21.6113C71.3717 24.6667 70.11 27.0726 68.0195 28.8291C65.9414 30.5856 63.319 31.4391 60.1523 31.3896C58.1855 31.3525 56.4785 30.932 55.0312 30.1279C53.584 29.3115 52.514 28.1673 51.8213 26.6953C51.141 25.2109 50.9121 23.5225 51.1348 21.6299L54.1406 3.98438H60.5234L57.5361 21.6484C57.4619 22.2669 57.4495 22.8545 57.499 23.4111C57.5609 24.3265 57.8454 25.0378 58.3525 25.5449C58.8721 26.0521 59.6019 26.3242 60.542 26.3613C63.2633 26.4479 64.9023 24.8708 65.459 21.6299L68.4648 3.98438H74.8105ZM85.6836 21.4629H82.1582L80.4883 31H74.1426L78.8184 3.98438L88.3555 4.00293C91.4108 4.00293 93.7611 4.72038 95.4062 6.15527C97.0638 7.5778 97.806 9.52604 97.6328 12C97.4967 13.9544 96.9339 15.5749 95.9443 16.8613C94.9548 18.1354 93.5693 19.1436 91.7881 19.8857L95.4248 30.6846V31H88.6523L85.6836 21.4629ZM83.0117 16.4346L86.7227 16.4717C87.737 16.4717 88.6152 16.2243 89.3574 15.7295C90.112 15.2347 90.6501 14.5605 90.9717 13.707C91.2933 12.8411 91.3861 12.0062 91.25 11.2021C91.0026 9.8291 90.1243 9.10547 88.6152 9.03125L84.3105 9.0127L83.0117 16.4346ZM107.764 31L112.439 3.98438L121.03 4.00293C124.42 4.0153 126.949 4.65853 128.619 5.93262C130.289 7.20671 131.05 8.99414 130.901 11.2949C130.716 14.14 129.157 16.1562 126.226 17.3438C127.277 17.7148 128.093 18.389 128.675 19.3662C129.269 20.3311 129.522 21.4938 129.436 22.8545C129.262 25.4645 128.229 27.4746 126.337 28.8848C124.457 30.2949 121.878 31 118.6 31H107.764ZM116.113 19.5146L114.981 25.9902L118.785 26.0088C119.973 26.0088 120.962 25.7181 121.754 25.1367C122.546 24.543 123.016 23.7575 123.164 22.7803C123.51 20.7145 122.719 19.6322 120.789 19.5332L116.113 19.5146ZM116.837 15.2471L119.824 15.2656C122.583 15.2038 124.129 14.1462 124.463 12.0928C124.76 10.0641 123.708 9.04362 121.309 9.03125L117.932 9.0127L116.837 15.2471ZM142.888 31.3711C140.08 31.3092 137.828 30.3815 136.134 28.5879C134.439 26.7943 133.48 24.3945 133.258 21.3887C133.134 19.9043 133.252 18.1602 133.61 16.1562C133.969 14.14 134.606 12.2845 135.521 10.5898C136.437 8.89518 137.581 7.48503 138.954 6.35938C141.255 4.4668 143.902 3.55143 146.896 3.61328C148.739 3.65039 150.347 4.07715 151.72 4.89355C153.105 5.69759 154.212 6.86035 155.041 8.38184C155.87 9.90332 156.352 11.6351 156.488 13.5771C156.587 14.9502 156.501 16.515 156.229 18.2715C155.969 20.0156 155.48 21.6855 154.763 23.2812C154.058 24.8646 153.142 26.2624 152.017 27.4746C150.891 28.6868 149.561 29.6517 148.027 30.3691C146.506 31.0742 144.793 31.4082 142.888 31.3711ZM150.124 13.5215C150 10.429 148.8 8.82096 146.524 8.69727C144.768 8.61068 143.314 9.30957 142.164 10.7939C141.014 12.266 140.253 14.443 139.882 17.3252C139.647 19.1064 139.56 20.4857 139.622 21.4629C139.746 24.6048 140.958 26.2191 143.259 26.3057C144.768 26.3799 146.067 25.8418 147.155 24.6914C148.244 23.5286 149.029 21.8464 149.512 19.6445C149.994 17.4303 150.198 15.3893 150.124 13.5215ZM168.53 31.3711C165.722 31.3092 163.471 30.3815 161.776 28.5879C160.082 26.7943 159.123 24.3945 158.9 21.3887C158.777 19.9043 158.894 18.1602 159.253 16.1562C159.612 14.14 160.249 12.2845 161.164 10.5898C162.079 8.89518 163.224 7.48503 164.597 6.35938C166.897 4.4668 169.545 3.55143 172.538 3.61328C174.381 3.65039 175.989 4.07715 177.362 4.89355C178.748 5.69759 179.855 6.86035 180.684 8.38184C181.512 9.90332 181.995 11.6351 182.131 13.5771C182.23 14.9502 182.143 16.515 181.871 18.2715C181.611 20.0156 181.123 21.6855 180.405 23.2812C179.7 24.8646 178.785 26.2624 177.659 27.4746C176.534 28.6868 175.204 29.6517 173.67 30.3691C172.148 31.0742 170.435 31.4082 168.53 31.3711ZM175.767 13.5215C175.643 10.429 174.443 8.82096 172.167 8.69727C170.41 8.61068 168.957 9.30957 167.807 10.7939C166.656 12.266 165.896 14.443 165.524 17.3252C165.289 19.1064 165.203 20.4857 165.265 21.4629C165.388 24.6048 166.601 26.2191 168.901 26.3057C170.41 26.3799 171.709 25.8418 172.798 24.6914C173.886 23.5286 174.672 21.8464 175.154 19.6445C175.637 17.4303 175.841 15.3893 175.767 13.5215ZM193.876 21.0176L190.573 24.1162L189.367 31H183.021L187.697 3.98438H194.062L192.039 15.5439L194.674 12.334L201.688 3.98438H209.926L198.719 16.2119L204.935 31H197.68L193.876 21.0176ZM219.723 3.98438L222.302 22.7246L231.356 3.98438H239.817L235.142 31H228.759L229.909 24.376L232.655 12.167L223.192 31H218.98L215.919 11.4619L214.212 25.0068L213.154 31H206.809L211.484 3.98438H219.723ZM255.515 25.9531H246.887L244.493 31H237.498L251.804 3.98438H257.778L262.77 31H256.164L255.515 25.9531ZM249.262 20.9248H254.865L253.678 11.6104L249.262 20.9248ZM276.5 21.4629H272.975L271.305 31H264.959L269.635 3.98438L279.172 4.00293C282.227 4.00293 284.577 4.72038 286.223 6.15527C287.88 7.5778 288.622 9.52604 288.449 12C288.313 13.9544 287.75 15.5749 286.761 16.8613C285.771 18.1354 284.386 19.1436 282.604 19.8857L286.241 30.6846V31H279.469L276.5 21.4629ZM273.828 16.4346L277.539 16.4717C278.553 16.4717 279.432 16.2243 280.174 15.7295C280.928 15.2347 281.466 14.5605 281.788 13.707C282.11 12.8411 282.202 12.0062 282.066 11.2021C281.819 9.8291 280.941 9.10547 279.432 9.03125L275.127 9.0127L273.828 16.4346ZM300.046 21.0176L296.743 24.1162L295.537 31H289.191L293.867 3.98438H300.231L298.209 15.5439L300.844 12.334L307.857 3.98438H316.096L304.889 16.2119L311.104 31H303.85L300.046 21.0176ZM327.822 23.6895C328.094 22.2917 327.34 21.2093 325.559 20.4424L322.516 19.1807C318.248 17.2633 316.219 14.6533 316.43 11.3506C316.516 9.84147 317.036 8.49935 317.988 7.32422C318.941 6.13672 320.258 5.21517 321.94 4.55957C323.623 3.90397 325.46 3.58854 327.451 3.61328C330.123 3.66276 332.269 4.44206 333.89 5.95117C335.522 7.46029 336.326 9.48275 336.302 12.0186H329.993C330.03 10.9795 329.808 10.1507 329.325 9.53223C328.855 8.90137 328.076 8.57357 326.987 8.54883C325.924 8.52409 324.983 8.77148 324.167 9.29102C323.351 9.81055 322.868 10.5094 322.72 11.3877C322.485 12.6247 323.4 13.639 325.466 14.4307C327.544 15.2223 329.053 15.9027 329.993 16.4717C332.95 18.2406 334.335 20.6279 334.149 23.6338C334.05 25.1924 333.549 26.5592 332.646 27.7344C331.743 28.9095 330.488 29.8187 328.88 30.4619C327.284 31.1051 325.491 31.4144 323.499 31.3896C322.039 31.3649 320.685 31.1361 319.436 30.7031C318.186 30.2702 317.116 29.6393 316.226 28.8105C314.42 27.1406 313.554 24.945 313.628 22.2236L319.992 22.2422C319.918 23.6276 320.184 24.679 320.79 25.3965C321.396 26.1016 322.417 26.4541 323.852 26.4541C324.915 26.4541 325.8 26.2129 326.505 25.7305C327.222 25.2357 327.661 24.5553 327.822 23.6895Z" fill="#F1F452"/>
	<path d="M10.1719 12.6738L17 0.984375H24.1436L12.4912 18.5928L10.877 28H4.41992L6.16406 17.9805L0.764648 1.00293L7.37012 0.984375L10.1719 12.6738ZM31.9736 28.3711C29.1657 28.3092 26.9144 27.3815 25.2197 25.5879C23.5251 23.7943 22.5664 21.3945 22.3438 18.3887C22.2201 16.9043 22.3376 15.1602 22.6963 13.1562C23.055 11.14 23.6921 9.28451 24.6074 7.58984C25.5228 5.89518 26.667 4.48503 28.04 3.35938C30.3408 1.4668 32.988 0.551432 35.9814 0.613281C37.8245 0.650391 39.4326 1.07715 40.8057 1.89355C42.1911 2.69759 43.2982 3.86035 44.127 5.38184C44.9557 6.90332 45.4382 8.63509 45.5742 10.5771C45.6732 11.9502 45.5866 13.515 45.3145 15.2715C45.0547 17.0156 44.5661 18.6855 43.8486 20.2812C43.1436 21.8646 42.2282 23.2624 41.1025 24.4746C39.9769 25.6868 38.6471 26.6517 37.1133 27.3691C35.5918 28.0742 33.8786 28.4082 31.9736 28.3711ZM39.21 10.5215C39.0863 7.42904 37.8864 5.82096 35.6104 5.69727C33.8538 5.61068 32.4004 6.30957 31.25 7.79395C30.0996 9.26595 29.3389 11.443 28.9678 14.3252C28.7327 16.1064 28.6462 17.4857 28.708 18.4629C28.8317 21.6048 30.0439 23.2191 32.3447 23.3057C33.8538 23.3799 35.1527 22.8418 36.2412 21.6914C37.3298 20.5286 38.1152 18.8464 38.5977 16.6445C39.0801 14.4303 39.2842 12.3893 39.21 10.5215ZM71.8105 0.984375L68.8047 18.6113C68.3717 21.6667 67.11 24.0726 65.0195 25.8291C62.9414 27.5856 60.319 28.4391 57.1523 28.3896C55.1855 28.3525 53.4785 27.932 52.0312 27.1279C50.584 26.3115 49.514 25.1673 48.8213 23.6953C48.141 22.2109 47.9121 20.5225 48.1348 18.6299L51.1406 0.984375H57.5234L54.5361 18.6484C54.4619 19.2669 54.4495 19.8545 54.499 20.4111C54.5609 21.3265 54.8454 22.0378 55.3525 22.5449C55.8721 23.0521 56.6019 23.3242 57.542 23.3613C60.2633 23.4479 61.9023 21.8708 62.459 18.6299L65.4648 0.984375H71.8105ZM82.6836 18.4629H79.1582L77.4883 28H71.1426L75.8184 0.984375L85.3555 1.00293C88.4108 1.00293 90.7611 1.72038 92.4062 3.15527C94.0638 4.5778 94.806 6.52604 94.6328 9C94.4967 10.9544 93.9339 12.5749 92.9443 13.8613C91.9548 15.1354 90.5693 16.1436 88.7881 16.8857L92.4248 27.6846V28H85.6523L82.6836 18.4629ZM80.0117 13.4346L83.7227 13.4717C84.737 13.4717 85.6152 13.2243 86.3574 12.7295C87.112 12.2347 87.6501 11.5605 87.9717 10.707C88.2933 9.84115 88.3861 9.00618 88.25 8.20215C88.0026 6.8291 87.1243 6.10547 85.6152 6.03125L81.3105 6.0127L80.0117 13.4346ZM104.764 28L109.439 0.984375L118.03 1.00293C121.42 1.0153 123.949 1.65853 125.619 2.93262C127.289 4.20671 128.05 5.99414 127.901 8.29492C127.716 11.14 126.157 13.1562 123.226 14.3438C124.277 14.7148 125.093 15.389 125.675 16.3662C126.269 17.3311 126.522 18.4938 126.436 19.8545C126.262 22.4645 125.229 24.4746 123.337 25.8848C121.457 27.2949 118.878 28 115.6 28H104.764ZM113.113 16.5146L111.981 22.9902L115.785 23.0088C116.973 23.0088 117.962 22.7181 118.754 22.1367C119.546 21.543 120.016 20.7575 120.164 19.7803C120.51 17.7145 119.719 16.6322 117.789 16.5332L113.113 16.5146ZM113.837 12.2471L116.824 12.2656C119.583 12.2038 121.129 11.1462 121.463 9.09277C121.76 7.06413 120.708 6.04362 118.309 6.03125L114.932 6.0127L113.837 12.2471ZM139.888 28.3711C137.08 28.3092 134.828 27.3815 133.134 25.5879C131.439 23.7943 130.48 21.3945 130.258 18.3887C130.134 16.9043 130.252 15.1602 130.61 13.1562C130.969 11.14 131.606 9.28451 132.521 7.58984C133.437 5.89518 134.581 4.48503 135.954 3.35938C138.255 1.4668 140.902 0.551432 143.896 0.613281C145.739 0.650391 147.347 1.07715 148.72 1.89355C150.105 2.69759 151.212 3.86035 152.041 5.38184C152.87 6.90332 153.352 8.63509 153.488 10.5771C153.587 11.9502 153.501 13.515 153.229 15.2715C152.969 17.0156 152.48 18.6855 151.763 20.2812C151.058 21.8646 150.142 23.2624 149.017 24.4746C147.891 25.6868 146.561 26.6517 145.027 27.3691C143.506 28.0742 141.793 28.4082 139.888 28.3711ZM147.124 10.5215C147 7.42904 145.8 5.82096 143.524 5.69727C141.768 5.61068 140.314 6.30957 139.164 7.79395C138.014 9.26595 137.253 11.443 136.882 14.3252C136.647 16.1064 136.56 17.4857 136.622 18.4629C136.746 21.6048 137.958 23.2191 140.259 23.3057C141.768 23.3799 143.067 22.8418 144.155 21.6914C145.244 20.5286 146.029 18.8464 146.512 16.6445C146.994 14.4303 147.198 12.3893 147.124 10.5215ZM165.53 28.3711C162.722 28.3092 160.471 27.3815 158.776 25.5879C157.082 23.7943 156.123 21.3945 155.9 18.3887C155.777 16.9043 155.894 15.1602 156.253 13.1562C156.612 11.14 157.249 9.28451 158.164 7.58984C159.079 5.89518 160.224 4.48503 161.597 3.35938C163.897 1.4668 166.545 0.551432 169.538 0.613281C171.381 0.650391 172.989 1.07715 174.362 1.89355C175.748 2.69759 176.855 3.86035 177.684 5.38184C178.512 6.90332 178.995 8.63509 179.131 10.5771C179.23 11.9502 179.143 13.515 178.871 15.2715C178.611 17.0156 178.123 18.6855 177.405 20.2812C176.7 21.8646 175.785 23.2624 174.659 24.4746C173.534 25.6868 172.204 26.6517 170.67 27.3691C169.148 28.0742 167.435 28.4082 165.53 28.3711ZM172.767 10.5215C172.643 7.42904 171.443 5.82096 169.167 5.69727C167.41 5.61068 165.957 6.30957 164.807 7.79395C163.656 9.26595 162.896 11.443 162.524 14.3252C162.289 16.1064 162.203 17.4857 162.265 18.4629C162.388 21.6048 163.601 23.2191 165.901 23.3057C167.41 23.3799 168.709 22.8418 169.798 21.6914C170.886 20.5286 171.672 18.8464 172.154 16.6445C172.637 14.4303 172.841 12.3893 172.767 10.5215ZM190.876 18.0176L187.573 21.1162L186.367 28H180.021L184.697 0.984375H191.062L189.039 12.5439L191.674 9.33398L198.688 0.984375H206.926L195.719 13.2119L201.935 28H194.68L190.876 18.0176ZM216.723 0.984375L219.302 19.7246L228.356 0.984375H236.817L232.142 28H225.759L226.909 21.376L229.655 9.16699L220.192 28H215.98L212.919 8.46191L211.212 22.0068L210.154 28H203.809L208.484 0.984375H216.723ZM252.515 22.9531H243.887L241.493 28H234.498L248.804 0.984375H254.778L259.77 28H253.164L252.515 22.9531ZM246.262 17.9248H251.865L250.678 8.61035L246.262 17.9248ZM273.5 18.4629H269.975L268.305 28H261.959L266.635 0.984375L276.172 1.00293C279.227 1.00293 281.577 1.72038 283.223 3.15527C284.88 4.5778 285.622 6.52604 285.449 9C285.313 10.9544 284.75 12.5749 283.761 13.8613C282.771 15.1354 281.386 16.1436 279.604 16.8857L283.241 27.6846V28H276.469L273.5 18.4629ZM270.828 13.4346L274.539 13.4717C275.553 13.4717 276.432 13.2243 277.174 12.7295C277.928 12.2347 278.466 11.5605 278.788 10.707C279.11 9.84115 279.202 9.00618 279.066 8.20215C278.819 6.8291 277.941 6.10547 276.432 6.03125L272.127 6.0127L270.828 13.4346ZM297.046 18.0176L293.743 21.1162L292.537 28H286.191L290.867 0.984375H297.231L295.209 12.5439L297.844 9.33398L304.857 0.984375H313.096L301.889 13.2119L308.104 28H300.85L297.046 18.0176ZM324.822 20.6895C325.094 19.2917 324.34 18.2093 322.559 17.4424L319.516 16.1807C315.248 14.2633 313.219 11.6533 313.43 8.35059C313.516 6.84147 314.036 5.49935 314.988 4.32422C315.941 3.13672 317.258 2.21517 318.94 1.55957C320.623 0.903971 322.46 0.588542 324.451 0.613281C327.123 0.66276 329.269 1.44206 330.89 2.95117C332.522 4.46029 333.326 6.48275 333.302 9.01855H326.993C327.03 7.97949 326.808 7.15072 326.325 6.53223C325.855 5.90137 325.076 5.57357 323.987 5.54883C322.924 5.52409 321.983 5.77148 321.167 6.29102C320.351 6.81055 319.868 7.50944 319.72 8.3877C319.485 9.62467 320.4 10.639 322.466 11.4307C324.544 12.2223 326.053 12.9027 326.993 13.4717C329.95 15.2406 331.335 17.6279 331.149 20.6338C331.05 22.1924 330.549 23.5592 329.646 24.7344C328.743 25.9095 327.488 26.8187 325.88 27.4619C324.284 28.1051 322.491 28.4144 320.499 28.3896C319.039 28.3649 317.685 28.1361 316.436 27.7031C315.186 27.2702 314.116 26.6393 313.226 25.8105C311.42 24.1406 310.554 21.945 310.628 19.2236L316.992 19.2422C316.918 20.6276 317.184 21.679 317.79 22.3965C318.396 23.1016 319.417 23.4541 320.852 23.4541C321.915 23.4541 322.8 23.2129 323.505 22.7305C324.222 22.2357 324.661 21.5553 324.822 20.6895Z" fill="#7D87A1"/>
</svg>